# xmcd
#
# Track frame offsets: 
#        183
#        15300
#        31243
#        52938
#        71088
#        90498
#        106018
#        126958
#        145605
#        168880
#        180618
#        198420
#        222448
#        237395
#
# Disc length: 3359 seconds
#
# Revision: 0
# Processed by: cddbd v1.5.1PL0 Copyright (c) Steve Scherf et al.
# Submitted via: ExactAudioCopy v0.95a3
#
DISCID=b40d1d0e
DTITLE=Various Artist - Робинзон
DYEAR=1900
DGENRE=Pop
TTITLE0=Михаил Боярский - Робинзон
TTITLE1=Вячеслав Малежик - Двести Лет
TTITLE2=Алла Пугачёва - Белая Дверь
TTITLE3=Михаил Боярский - Всё Пройдёт
TTITLE4=Алла Пугачёва - Отраженье В Воде
TTITLE5=Лейся, Песня - Плоская Планета
TTITLE6=Алла Пугачёва - Ты На Свете Есть
TTITLE7=Михаил Боярский - Городские Цветы
TTITLE8=Красные Маки - Если Ты Уйдёшь
TTITLE9=Т. Рузавина, С. Таюшев - Два Белых Снега
TTITLE10=Алла Пугачёва - Если Звёзды Молчат
TTITLE11=Тынис Мяги - Сердце Не Спит
TTITLE12=Жанна Рождественская - Гадалка
TTITLE13=Михаил Боярский - Рыжий Конь
EXTD=
EXTT0=
EXTT1=
EXTT2=
EXTT3=
EXTT4=
EXTT5=
EXTT6=
EXTT7=
EXTT8=
EXTT9=
EXTT10=
EXTT11=
EXTT12=
EXTT13=
PLAYORDER=
